<?xml version="1.0" encoding="utf-8"?>
<!-- Generator: Adobe Illustrator 27.1.1, SVG Export Plug-In . SVG Version: 6.00 Build 0)  -->
<svg version="1.1" id="Capa_1" xmlns="http://www.w3.org/2000/svg" xmlns:xlink="http://www.w3.org/1999/xlink" x="0px" y="0px"
	 viewBox="0 0 900 900" style="enable-background:new 0 0 900 900;" xml:space="preserve">
<style type="text/css">
	.st0{fill:#1D70B7;}
	.st1{fill:#174F80;}
</style>
<g>
	<path class="st0" d="M818,585.2h-27h-22.7v45.4H791h27c12.5,0,22.7-10.2,22.7-22.7C840.7,595.4,830.5,585.2,818,585.2z"/>
	<rect x="304.6" y="13.8" class="st0" width="45.4" height="71.9"/>
	<rect x="458" y="13.8" class="st0" width="45.4" height="71.9"/>
	<rect x="223.4" y="13.8" class="st0" width="45.4" height="71.9"/>
	<rect x="539.2" y="13.8" class="st0" width="45.4" height="71.9"/>
	<rect x="142.1" y="13.8" class="st0" width="45.4" height="71.9"/>
	<rect x="620.5" y="13.8" class="st0" width="45.4" height="71.9"/>
	<rect x="381.3" y="13.8" class="st0" width="45.4" height="71.9"/>
	<rect x="304.6" y="814.2" class="st0" width="45.4" height="71.9"/>
	<rect x="458" y="814.2" class="st0" width="45.4" height="71.9"/>
	<rect x="223.4" y="814.2" class="st0" width="45.4" height="71.9"/>
	<rect x="539.2" y="814.2" class="st0" width="45.4" height="71.9"/>
	<rect x="142.1" y="814.2" class="st0" width="45.4" height="71.9"/>
	<rect x="620.5" y="814.2" class="st0" width="45.4" height="71.9"/>
	<rect x="381.3" y="814.2" class="st0" width="45.4" height="71.9"/>
	<rect x="768.2" y="350.6" class="st0" width="71.9" height="45.4"/>
	<rect x="768.2" y="503.9" class="st0" width="71.9" height="45.4"/>
	<path class="st1" d="M818,666.5l-49.7,0v45.4H791h27c12.5,0,22.7-10.2,22.7-22.7C840.7,676.6,830.5,666.5,818,666.5z"/>
	<rect x="768.2" y="427.3" class="st0" width="71.9" height="45.4"/>
	<path class="st0" d="M678.9,105.3H129.1c-38.5,0-69.8,31.3-69.8,69.8v549.8c0,38.5,31.3,69.8,69.8,69.8h549.8
		c38.5,0,69.8-31.3,69.8-69.8V175.1C748.7,136.6,717.4,105.3,678.9,105.3z M678.9,749.3H129.1c-13.4,0-24.4-10.9-24.4-24.4V544.8
		h131.4l40.6,47.3c-3,5.4-4.8,11.6-4.8,18.2c0,20.9,16.9,37.9,37.9,37.9c20.9,0,37.9-17,37.9-37.9c0-20.9-17-37.9-37.9-37.9
		c-0.6,0-1.2,0.2-1.9,0.2l-55-64.2H104.7v-40.3h155l60.8-78.6c1.5,0.2,3,0.5,4.6,0.5c20.9,0,37.9-17,37.9-37.9
		c0-20.9-17-37.9-37.9-37.9c-20.9,0-37.9,17-37.9,37.9c0,5.8,1.4,11.3,3.8,16.2l-49.1,63.4H104.7v-40.3h44
		c6.9,9.2,17.8,15.2,30.2,15.2c20.9,0,37.9-17,37.9-37.9c0-20.9-17-37.9-37.9-37.9c-16.1,0-29.7,10.1-35.2,24.2h-39V175.1
		c0-13.5,10.9-24.4,24.4-24.4h549.8c13.4,0,24.4,10.9,24.4,24.4v242.6h-129l-40.6-47.3c3-5.4,4.8-11.6,4.8-18.2
		c0-20.9-17-37.9-37.9-37.9c-20.9,0-37.9,17-37.9,37.9c0,20.9,17,37.9,37.9,37.9c0.6,0,1.2-0.2,1.9-0.2l55,64.2h145.8v40.3H481.1
		c-6.3-12.3-18.9-20.8-33.6-20.8c-20.9,0-37.9,17-37.9,37.9c0,20.9,17,37.9,37.9,37.9c13.8,0,25.8-7.5,32.4-18.6h223.3V571h-41.6
		c-6.9-9.2-17.8-15.2-30.2-15.2c-20.9,0-37.9,17-37.9,37.9c0,20.9,17,37.9,37.9,37.9c16.1,0,29.7-10.1,35.2-24.2h36.6v117.5
		C703.3,738.3,692.3,749.3,678.9,749.3z"/>
</g>
</svg>
