<?xml version="1.0" encoding="utf-8"?>
<!-- Generator: Adobe Illustrator 27.1.1, SVG Export Plug-In . SVG Version: 6.00 Build 0)  -->
<svg version="1.1" id="Capa_1" xmlns="http://www.w3.org/2000/svg" xmlns:xlink="http://www.w3.org/1999/xlink" x="0px" y="0px"
	 viewBox="0 0 600 250" style="enable-background:new 0 0 600 250;" xml:space="preserve">
<style type="text/css">
	.st0{fill:#FFFFFF;}
	.st1{fill:#1D70B7;}
	.st2{fill:#173354;}
	.st3{fill:#174F80;}
	.st4{fill:#ECECEC;}
	.st5{fill:url(#SVGID_1_);}
	.st6{fill:url(#SVGID_00000173852656254817885680000018446137664573044129_);}
	.st7{fill:url(#SVGID_00000107570031272035520310000004327820332601381819_);}
	.st8{fill:url(#SVGID_00000047027745497433482400000010619838796572505226_);}
	.st9{fill:url(#SVGID_00000081611244295860893580000000868800635415088276_);}
	.st10{fill:url(#SVGID_00000056386999900120914350000011130967533427250052_);}
	.st11{fill:url(#SVGID_00000010303967276381484470000005992619921026545807_);}
	.st12{fill:url(#SVGID_00000010279378977315328200000012275100660647705739_);}
	.st13{fill:url(#SVGID_00000045604679415122054370000012226768299876517531_);}
	.st14{fill:url(#SVGID_00000165219263707198646030000016218692518226722440_);}
	.st15{fill:url(#SVGID_00000062895727599047014650000000914351639613443244_);}
	.st16{fill:url(#SVGID_00000152946500787642680790000012656985980803737015_);}
	.st17{fill:url(#SVGID_00000147931206699526898670000013503800131201426103_);}
	.st18{fill:url(#SVGID_00000102532338649787532700000005433240598815499406_);}
	.st19{fill:url(#SVGID_00000155852754386857910470000006715368561238446500_);}
	.st20{fill:url(#SVGID_00000010272322090979639590000011539566194980686229_);}
	.st21{fill:url(#SVGID_00000081637744215491461470000006797713264469870013_);}
	.st22{fill:url(#SVGID_00000098921906147424171320000016695973748511265181_);}
	.st23{fill:url(#SVGID_00000050624952458128378450000017016515608916070543_);}
</style>
<g>
	<path class="st0" d="M575.6,120.2C575.6,120.2,575.6,120.2,575.6,120.2c-9.2-8.4-20.5-12.6-33.8-12.6c-10.8,0-20.4,2.8-28.5,8.3
		c-2.5-2.6-5.9-4.3-9.5-4.9c-0.4-1.2-1-2.5-1.6-3.6c-0.8-1.5-1.8-2.8-2.8-4c2.5,1,5.1,1.5,7.9,1.5H520c3,0,5.9-0.8,8.4-2.2
		c1.3,0.4,2.6,0.8,3.9,1.1c5.3,1.3,10.7,1.9,16.2,1.9c11.3,0,20.7-2.6,27.9-7.8c8.7-6.3,13.5-15.4,13.5-25.6
		c0-6.6-1.7-12.5-5.2-17.5c-0.1-0.2-0.2-0.3-0.3-0.5l2.3-5.3c3.6-8.2,0.4-17.7-7.3-22.1c-7.6-4.3-17-6.5-27.8-6.5
		c-11.1,0-20.4,2.7-27.6,7.9c0,0-0.1,0.1-0.1,0.1c-6.1-4.9-13.6-7.6-22.2-8c-1-3.8-2.9-7.3-5.8-10.2c-4.4-4.5-10.3-7-16.6-7H468
		c-9.6,0-17.4,7.8-17.4,17.4v1.4c-3.9-1-8.1-1.5-12.4-1.5c-12.3,0-22.8,3.7-31.2,11c-8.2-7.3-18.3-11-30-11c-8.9,0-17,2.1-23.9,6.4
		c-1.9-1.5-4-2.5-6.3-3.1c-0.3-0.7-0.6-1.4-1-2.1c-1.9-3.3-4.5-6.1-7.8-8.1c-3.4-2.1-7.3-3.2-11.3-3.2H314c-6.9,0-13,4.1-15.8,10.1
		c-3.7,0.1-7.3,0.6-10.8,1.4c-1.3-0.3-2.6-0.5-4-0.5h-12.3c-4.7,0-9.1,1.5-12.9,4.3c-6.4-3.5-13.7-5.2-21.8-5.2
		c-11.6,0-21.7,3.6-29.8,10.7c-7.7-7.1-17.1-10.7-28-10.7c-3.4,0-6.9,0.5-10.3,1.4c-1.4-0.3-2.7-0.5-4.2-0.5h-10.5
		c-2.5,0-4.9,0.4-7.2,1.1c-2-0.7-4-1.1-6.1-1.1h-14.4c-4.6,0-8.8,1.2-12.6,3.4c-3.8-2.2-8.1-3.4-12.8-3.4H94
		C92.5,13,85.4,6.9,76.9,6.9H27.4C17.8,6.9,10,14.7,10,24.3v54.9c0,7,2.6,13.3,7.6,18.2c3.1,3,6.7,5.1,10.7,6.3
		c-0.8,1.6-1.2,3.3-1.2,5.2v3.5c-7.1,3.7-11.8,11.2-11.8,19.5V210c0,8.3,4.7,15.7,11.8,19.5v3.5c0,6.6,5.4,12,12,12h6.5
		c0.9,0,1.7-0.1,2.5-0.3c0.8,0.2,1.7,0.3,2.5,0.3h6.5c0.9,0,1.7-0.1,2.5-0.3c0.8,0.2,1.7,0.3,2.5,0.3h6.5c0.7,0,1.5-0.1,2.2-0.2
		c0.7,0.1,1.5,0.2,2.2,0.2h6.5c0.7,0,1.5-0.1,2.2-0.2c0.7,0.1,1.5,0.2,2.2,0.2h6.5c0.9,0,1.7-0.1,2.5-0.3c0.8,0.2,1.7,0.3,2.5,0.3
		h6.5c0.9,0,1.7-0.1,2.5-0.3c0.8,0.2,1.7,0.3,2.5,0.3h6.5c6.6,0,12-5.4,12-12v-3.5c4-2.1,7.2-5.3,9.3-9.3h23
		c1.3,6.7,5.5,12.5,11.5,15.9c2.6,6.5,8.9,10.9,16.1,10.9h7.9c7.2,0,13.5-4.4,16.1-10.9c7.2-4,11.7-11.5,11.9-19.8
		c3.2-2.8,5.1-7,5.1-11.3c0-2-0.4-4-1.1-5.8c0.5-1.2,0.8-2.4,1-3.6c1,1,2.1,2,3.3,2.7c-0.4,0.6-0.8,1.3-1.1,2
		c-1.2,2.4-1.8,5.1-1.8,8c0,2,0.3,3.9,0.9,5.7l-0.3,0.6c-2.8,5.2-1.4,11.6,3.3,15.2c2.3,1.7,4.8,3.1,7.6,4c2.7,0.9,5.4,1.3,8.3,1.3
		c2,0,4-0.2,5.8-0.7c1.1-0.3,2.1-0.6,3.1-1c0.1,0,0.2,0.1,0.2,0.1c2.5,1.1,5.2,1.7,8.1,1.7c2.7,0,5.2-0.5,7.5-1.4
		c2,0.9,4.3,1.4,6.6,1.4c1.3,0,2.6-0.1,4-0.4c0.3-0.1,0.6-0.1,1-0.2c3.1,0.9,6.6,0.9,9.7,0.1c1.2,0.3,2.4,0.4,3.6,0.4
		c0.6,0,1.1,0,1.8-0.1c0.5-0.1,1.1-0.1,1.7-0.2c0.6-0.1,1.2-0.3,1.8-0.5c2,0.6,4,0.9,6.2,0.9c2,0,4-0.3,5.8-0.8
		c1.1,0.3,2.3,0.5,3.5,0.5h3.2c1.4,0,2.8-0.3,4.2-0.7c2,0.7,4.2,1,6.5,1c2.3,0,4.4-0.4,6.5-1c1.3,0.5,2.7,0.8,4.2,0.8h3.2
		c1.2,0,2.5-0.2,3.6-0.6c1.2,0.4,2.4,0.6,3.6,0.6h3.2c1.4,0,2.8-0.3,4.1-0.7c2,0.7,4.2,1,6.5,1c2.8,0,5.3-0.5,7.7-1.5
		c0.3,0.1,0.5,0.2,0.8,0.3c2.4,0.8,4.9,1.2,7.4,1.2c4.6,0,8.5-1.3,11.8-3.8c0.1-0.1,0.1-0.1,0.2-0.2c2.2,2.2,5.2,3.6,8.6,3.6h3.3
		c1.8,0,3.6-0.4,5.2-1.2c2.4,1,4.9,1.5,7.6,1.5c3.1,0,6-0.6,8.7-1.9c0.2,0.1,0.3,0.2,0.5,0.2c2.5,1.1,5.2,1.7,8.1,1.7
		c2,0,4-0.3,5.8-0.8c1.1,0.3,2.3,0.5,3.5,0.5h3.2c1.2,0,2.5-0.2,3.6-0.6c1.2,0.4,2.4,0.6,3.6,0.6h3.2c1.4,0,2.8-0.2,4.1-0.7
		c2,0.7,4.2,1,6.4,1c2.7,0,5.2-0.5,7.5-1.4c2,0.9,4.3,1.4,6.6,1.4c1.3,0,2.6-0.1,4-0.4c0.7-0.1,1.3-0.3,1.9-0.5
		c1.9,0.6,4,0.9,6.1,0.9c0.6,0,1.3,0,1.9-0.1c1.6,1.7,3.4,3,5.4,4.1c2.8,1.5,6.1,2.2,9.7,2.2c2.4,0,4.6-0.3,6.8-1
		c2.4-0.8,4.7-1.9,6.6-3.5c0.7-0.6,1.4-1.3,2.1-2c1.3,0,2.7-0.3,3.9-0.8c2.1,0.7,4.2,1.1,6.5,1.1c2.5,0,4.8-0.4,7-1.2c0,0,0,0,0,0
		c2,0.8,4.2,1.2,6.4,1.2c1.5,0,3-0.2,4.5-0.5c1.1,0.2,2.2,0.4,3.4,0.4c0.6,0,1.1,0,1.8-0.1c0.6-0.1,1.2-0.1,1.9-0.3
		c0.3,0,0.5-0.1,0.8-0.2c1.8,0.4,3.7,0.7,5.5,0.7c4.6,0,8.5-1.3,11.8-3.8c4-3.1,6.3-7.8,6.3-13c0-2-0.3-3.8-1-5.6
		c1.3-4.4-0.1-9.4-3.7-12.6c-1.9-1.6-4.1-2.8-6.4-3.7c-1.7-0.6-3.5-1-5.3-1.1c1.5-0.9,3-1.9,4.4-3c5.1-3.9,8.1-9.5,8.6-15.8
		c0.1-1.3,0.1-2.5-0.1-3.7c3.4-3,5.5-7.3,5.8-11.9c0.3-4.9,0.3-5.4,0.3-6C590,140.6,585.2,128.9,575.6,120.2z"/>
	<g>
		<path class="st1" d="M211.3,190.1h-72.8h-7h-3.2v6.5h3.2h7h72.8c1.8,0,3.2-1.4,3.2-3.2C214.5,191.6,213,190.1,211.3,190.1z"/>
		<g>
			<path class="st2" d="M506.7,170.5c-0.9-2.5-2.5-4.4-4.8-5.7c-2.2-1.2-4.6-1.6-7.3-1.3c-0.3,0-0.6,0.1-0.9,0.1
				c-0.5,0-0.6-0.1-0.6-0.1c0,0-0.2-0.3-0.2-1.2v-13.7h7.9c2.9,0,5.3-2.4,5.3-5.3V128c0-2.9-2.4-5.3-5.3-5.3H493v-4.3
				c0-1.9-0.5-3.7-1.3-5.3c-0.9-1.6-2.2-2.9-3.8-3.9c-1.7-1-3.5-1.5-5.5-1.5h-14.9c-2.9,0-5.3,2.4-5.3,5.3v9.3c0,0.1,0,0.2,0,0.3
				h-3.1c-2.9,0-5.3,2.4-5.3,5.3v8.3c-0.4-1-0.8-2-1.3-2.9c-2.7-4.9-6.3-8.5-10.7-10.7c-4.2-2.1-9.1-3.2-14.5-3.2
				c-4.5,0-9.3,1.1-14.2,3.2c-1-1.3-2.6-2.1-4.3-2.1h-12.2c-3.3,0-6.2,1.2-8.7,3.5c-2.4,2.4-3.7,5.4-3.7,8.8v7.9
				c-1.8-4.6-4.4-8.6-8.1-11.9c-6.9-6.3-15.5-9.5-25.7-9.5c-10.5,0-19.3,3.3-26.3,9.8c-6,5.6-9.5,12.6-10.4,20.9v-17.7
				c0-3.3-1.2-6.3-3.6-8.6c-0.7-0.7-1.4-1.2-2.2-1.7c2.4-1.4,4.4-3.2,5.7-5.5c1.5-2.5,2.2-5.3,2.2-8.3c0-3.1-0.8-5.9-2.3-8.3
				c-1.6-2.5-3.8-4.4-6.6-5.7c-2.6-1.2-5.5-1.8-8.7-1.8c-4.9,0-9.1,1.5-12.4,4.4c-3.5,3.1-5.3,7-5.3,11.7c0,4.7,1.8,8.6,5.3,11.7
				c0.2,0.2,0.4,0.3,0.6,0.5c-1.7,0.5-3,1.9-3.5,3.6c-0.2-2.8-2.5-5-5.3-5c-5.7,0-11,0.9-15.7,2.5c-1-0.9-2.3-1.5-3.7-1.5h-14.5
				c-2.6,0-5.1,1-7,2.8c-2,1.9-3.1,4.4-3.1,7.3v0.5c-2.2-6.2-5.8-11.7-10.9-16.5c-8.8-8.2-20-12.4-33.3-12.4
				c-8.1,0-15.3,1.6-21.8,4.6c1.8-1.9,2.8-4.3,2.8-6.9v-7.8c2.5,0.8,5.3,1.2,8.3,1.2c8.2,0,15.3-2.9,20.9-8.5
				c3.1-3.1,5.3-6.8,6.7-11.1c1.6,4.2,4.1,7.9,7.7,11.1c6.3,5.6,14.4,8.5,24.3,8.5c8.6,0,15.7-2.1,21-6.2c1-0.8,1.9-1.7,2.5-2.7v2.8
				c0,2.9,2.4,5.3,5.3,5.3h12.8c2.7,0,5.1-1,6.9-2.9c1.8-1.8,2.7-4.2,2.7-6.8V64.9c0-2.5,0.5-4.3,1.4-5.2c1.1-1,2.7-1.5,5-1.5
				c0.8,0,1.9,0.1,3.2,0.2c1.5,0.2,2.9-0.3,4.1-1.3c0.9,0.8,2.1,1.3,3.5,1.3h1.8v11.1c0,7.7,2.3,13.8,6.9,17.9
				c4.4,4,10.6,6.1,18.3,6.1c6.1,0,11.1-1.3,14.9-3.7c2.1-1.4,2.9-4,2.1-6.3l-1.9-5.1c1.5,2.4,3.3,4.6,5.5,6.6
				c6.3,5.6,14.4,8.5,24.3,8.5c8.6,0,15.7-2.1,21-6.2c2.2-1.6,3.4-3.9,3.6-6.6c0.2-2.6-0.7-5.1-2.5-6.9l-1.2-1.3h3.2
				c1.1,0,2.2-0.4,3.1-1c1.5,5.2,4.3,9.7,8.4,13.5c6.2,5.6,14.2,8.5,23.8,8.5c5.4,0,10.4-1,14.7-3.1c4-1.9,7.2-4.6,9.7-7.9v0.9
				c0,2.5,0.9,4.8,2.7,6.5c1.8,1.8,4,2.7,6.4,2.7H485c2.9,0,5.3-2.4,5.3-5.3V63.7c0-2.4,0.4-4.2,1.2-5.1c0.8-0.8,1.7-1.2,3.2-1.2
				c1.4,0,2.7,0,2.7,4.6V83c0,2.7,1,5,2.8,6.9c1.8,1.9,4.2,2.8,6.9,2.8H520c2.6,0,4.8-1.9,5.2-4.4c2.7,1.5,6,2.7,9.9,3.6
				c4.3,1.1,8.8,1.6,13.4,1.6c8.7,0,15.8-1.9,20.9-5.5c5.7-4.1,8.5-9.4,8.5-15.9c0-4.1-1-7.7-3.1-10.7c-1.8-2.6-4-4.6-6.6-5.8
				c2-1.1,3.6-2.8,4.7-5.1l2.9-6.5c1.1-2.5,0.1-5.4-2.3-6.8c-5.8-3.3-13.1-4.9-21.9-4.9c-8.5,0-15.5,1.9-20.6,5.6
				c-3.8,2.7-6.3,6.1-7.5,9.9c-1.2-3.4-3-6.2-5.4-8.6c-4.7-4.6-10.9-7-18.5-7c-3,0-6.1,0.6-9.3,1.9v-8c0-2.9-1.1-5.6-3.2-7.7
				c-2.1-2.2-4.9-3.3-7.9-3.3H468c-2.9,0-5.3,2.4-5.3,5.3v22.8c-2-2.6-4.5-4.9-7.5-6.7c-4.8-2.8-10.5-4.3-17-4.3
				c-9.6,0-17.6,2.9-23.8,8.5c-3.5,3.2-6.1,7-7.7,11.2c-1.5-4.4-4-8.2-7.4-11.4c-6-5.5-13.5-8.2-22.3-8.2c-9.1,0-16.8,2.9-22.8,8.5
				c-2.8,2.6-4.9,5.5-6.4,8.7v-9.3c0-2.9-2.4-5.3-5.3-5.3h-5.9v-2.8c0-1.7-0.4-3.4-1.2-4.9c-0.8-1.5-2-2.7-3.5-3.6
				c-1.5-0.9-3.2-1.4-5.1-1.4H314c-2.9,0-5.3,2.4-5.3,5.3v7.4h-1.8c-0.8,0-1.5,0.2-2.2,0.5c-0.8-1.8-2.7-3.1-4.8-3.1
				c-4.8,0-9.2,0.7-13.1,2c-0.9-0.7-2.1-1.1-3.3-1.1h-12.3c-2.4,0-4.7,0.9-6.5,2.6c-1.9,1.8-2.9,4.1-2.9,6.7v1.1
				c-0.9-1.1-1.9-2.2-3-3.2c-6-5.5-13.5-8.2-22.3-8.2c-9.1,0-16.8,2.9-22.8,8.5c-3.4,3.2-5.8,6.8-7.4,10.9c-1.4-4.2-3.6-7.8-6.7-11
				c-5.6-5.7-12.6-8.5-20.9-8.5c-3.6,0-7.3,0.8-10.9,2.3c-1-0.9-2.2-1.4-3.6-1.4h-10.5c-3,0-5.7,1.1-7.8,3.2
				c-0.2,0.2-0.3,0.3-0.4,0.5c-0.1-0.3-0.1-0.5-0.3-0.8c-0.9-1.8-2.7-3-4.8-3h-14.4c-4.1,0-7.6,1.7-10.2,5.1l-2.4,3.4l-2.1-3
				c-2.5-3.6-6.2-5.4-10.7-5.4H85.5c-1.2,0-2.3,0.4-3.3,1.2v-10c0-2.9-2.4-5.3-5.3-5.3H27.4c-2.9,0-5.3,2.4-5.3,5.3v54.9
				c0,3.8,1.4,7,4,9.6c2.6,2.6,5.8,3.9,9.5,3.9H78c1.3,0,2.5-0.5,3.5-1.3c0.9,0.8,2.1,1.3,3.4,1.3h15.7c3.6,0,6.7-1.5,8.9-4.5
				l3.2-4.4l2.7,3.9c2.2,3.2,5.6,4.9,9.4,4.9h16.4c0.5,0,1-0.1,1.5-0.2v12.3c0,2.9,2.4,5.3,5.3,5.3h12.4c0.7,0,1.4-0.1,2.1-0.2
				c-2.2,1.4-4.3,3-6.3,4.9c-8.9,8.3-13.5,19-13.5,31.7c0,8.3,2.1,15.9,6.1,22.6c4.1,6.7,9.7,12,16.9,15.8c7.1,3.7,15,5.6,23.7,5.6
				c13.2,0,24.4-4.2,33.3-12.4c5.1-4.7,8.7-10.3,10.9-16.5v22c0,2.9,2.4,5.3,5.3,5.3h15.2c2.9,0,5.5-1.1,7.5-3.1
				c1.9-2,2.9-4.5,2.9-7.3v-21.4c0-3.3,0.7-5.6,2-6.8c1.5-1.4,3.6-2,6.6-2c1,0,2.3,0.1,3.9,0.2c1.5,0.2,3-0.3,4.2-1.4
				c0.7-0.7,1.2-1.5,1.5-2.4v31.5c0,3.5,1.3,6.6,3.7,9.1c2.4,2.4,5.6,3.7,9.1,3.7h12.9c2.9,0,5.3-2.4,5.3-5.3v-24.6
				c0.9,8.4,4.6,15.4,10.8,21.1c7.2,6.5,16.6,9.8,28.1,9.8c9.9,0,18.1-2.4,24.2-7.2c2.3-1.8,3.7-4.2,3.9-7.1
				c0.2-2.8-0.8-5.5-2.7-7.4l-3-3.1h6.1c1.2,0,2.3-0.4,3.2-1.1v19.6c0,2.9,2.4,5.3,5.3,5.3h12.2c3.7,0,6.9-1.3,9.5-4
				c2.5-2.6,3.8-5.7,3.8-9.3v-19.9c0-3.1,0.6-5.4,1.7-6.6c1.1-1.2,2.5-1.7,4.4-1.7c1.9,0,4.1,0,4.1,6.4v29.8c0,2.9,2.4,5.3,5.3,5.3
				H451c2.9,0,5.3-2.4,5.3-5.3v-33c0-1,0-2-0.1-3c0.8,0.5,1.8,0.9,2.9,0.9h3v14c0,8.8,2.6,15.7,7.8,20.5c5.1,4.6,12.1,6.9,20.9,6.9
				c7,0,12.7-1.4,17-4.3c2.1-1.4,2.9-4,2.1-6.3L506.7,170.5z M78,68.2H50.4v-0.9h22.7c2.9,0,5.3-2.4,5.3-5.3V48.7
				c0-2.8-2.1-5.1-4.9-5.3h3.3c1.7,0,3.2-0.8,4.1-2c0.1,0.1,0.1,0.2,0.2,0.3l15.6,21.2L83.4,80.5v-7C83.4,70.6,81,68.2,78,68.2z
				 M129.2,62.2l13.5-17.9v36.1L129.2,62.2z M170.3,62.9c0-2.2,0.5-3.8,1.5-4.9c0.9-1,2-1.4,3.5-1.4c1.5,0,2.5,0.4,3.4,1.4
				c1,1.1,1.5,2.7,1.5,5c0,2.2-0.5,3.8-1.4,4.9c-0.9,1-1.9,1.4-3.4,1.4c-1.5,0-2.6-0.4-3.5-1.4C170.8,66.7,170.3,65.1,170.3,62.9z
				 M261.9,75.5c-0.4-0.6-0.8-1.2-1.4-1.8l-1.2-1.3h2.6V75.5z M529.9,69c-1.9,1-3.4,2.5-4.6,4.5v-9.3
				C526.6,66.1,528.1,67.7,529.9,69z M450.2,63.2c-2.6-1.3-5.8-0.3-7.1,2.3c-1.9,3.7-4,3.7-5,3.7c-1.7,0-2.8-0.4-3.8-1.5
				c-1-1-1.5-2.6-1.5-4.9c0-2.2,0.5-3.7,1.5-4.8c1-1,2.1-1.5,3.8-1.5c1.5,0,2.5,0.5,3.5,1.6c1.7,1.8,3.8,3,6.2,3.3
				c2.4,0.4,4.8,0,6.7-1.1l8.2-4.1v14c-0.7-0.8-1.6-1.5-2.7-2.1L450.2,63.2z M346.4,73.1c-0.8-1-1.7-1.8-2.9-2.5
				c-2-1.1-4.2-1.5-6.7-1.2c-0.1,0-0.2,0-0.4,0c0-0.1,0-0.2,0-0.3V58.4h5.9c1.1,0,2.1-0.3,2.9-0.9c-0.3,1.7-0.4,3.4-0.4,5.3
				C344.8,66.5,345.3,69.9,346.4,73.1z M204.2,146.4c0,4.9-1.4,8.7-4.2,11.7c-2.8,2.9-6.1,4.3-10.5,4.3c-4.4,0-7.7-1.4-10.6-4.3
				c-2.8-2.9-4.2-6.7-4.2-11.6c0-3.3,0.7-6.2,2-8.6c1.3-2.4,3-4.2,5.2-5.4c2.2-1.3,4.7-1.9,7.5-1.9c2.8,0,5.3,0.6,7.6,1.9
				c2.2,1.2,3.9,3,5.1,5.3C203.5,140.2,204.2,143.1,204.2,146.4z"/>
			<path class="st2" d="M541.8,119.6c-10.5,0-19.3,3.3-26.3,9.8c-7.1,6.6-10.7,15.1-10.7,25.3c0,10.3,3.7,18.9,11.1,25.5
				c7.2,6.5,16.6,9.8,28.1,9.8c9.9,0,18.1-2.4,24.2-7.2c2.3-1.8,3.7-4.2,3.9-7.1c0.2-2.8-0.8-5.5-2.7-7.4l-3-3.1h6.1
				c2.8,0,5.2-2.2,5.3-5c0.3-4.5,0.3-5,0.3-5.3c0-10.7-3.5-19.4-10.5-25.8C560.6,122.7,552,119.6,541.8,119.6z"/>
		</g>
		<g>
			<path class="st3" d="M251.7,207c-0.2-0.2-0.5-0.4-0.8-0.7c-0.4-0.2-0.8-0.5-1.3-0.7s-1-0.4-1.6-0.5c-0.6-0.1-1.2-0.2-1.8-0.2
				c-1.4,0-2.4,0.3-3,0.8c-0.6,0.5-1,1.2-1,2.1c0,0.5,0.1,0.9,0.3,1.2s0.5,0.6,0.9,0.8c0.4,0.2,1,0.5,1.6,0.6
				c0.6,0.2,1.4,0.4,2.2,0.6c1,0.3,2,0.5,2.8,0.8c0.8,0.3,1.6,0.7,2.1,1.1s1,1,1.3,1.6c0.3,0.6,0.5,1.4,0.5,2.4c0,1-0.2,1.9-0.6,2.7
				c-0.4,0.8-0.9,1.4-1.6,1.8c-0.7,0.5-1.5,0.8-2.4,1c-0.9,0.2-1.9,0.3-2.9,0.3c-1.6,0-3.1-0.2-4.5-0.7c-1.5-0.5-2.8-1.2-4-2.1
				l1.5-2.8c0.3,0.3,0.6,0.5,1.1,0.8c0.5,0.3,1,0.6,1.7,0.9s1.3,0.5,2,0.7c0.7,0.2,1.5,0.3,2.3,0.3c1.3,0,2.3-0.2,3-0.7
				c0.7-0.4,1-1.1,1-2c0-0.5-0.1-1-0.4-1.3c-0.3-0.3-0.6-0.7-1.1-0.9c-0.5-0.3-1.1-0.5-1.8-0.7s-1.5-0.4-2.4-0.7
				c-1-0.3-1.9-0.6-2.7-0.9c-0.8-0.3-1.4-0.7-1.9-1.1c-0.5-0.4-0.9-0.9-1.1-1.5c-0.3-0.6-0.4-1.3-0.4-2.1c0-1,0.2-1.9,0.6-2.7
				c0.4-0.8,0.9-1.4,1.6-2c0.7-0.5,1.5-0.9,2.4-1.2c0.9-0.3,1.9-0.4,3-0.4c1.4,0,2.7,0.2,3.9,0.7c1.2,0.4,2.2,1,3.1,1.7L251.7,207z"
				/>
			<path class="st3" d="M263.7,223c-1.2,0-2.3-0.2-3.2-0.6c-1-0.4-1.8-1-2.5-1.7c-0.7-0.7-1.2-1.6-1.6-2.5c-0.4-1-0.6-2-0.6-3
				c0-1,0.2-2,0.6-3c0.4-1,0.9-1.8,1.6-2.5c0.7-0.7,1.5-1.3,2.5-1.7s2-0.6,3.2-0.6c1.2,0,2.3,0.2,3.2,0.6s1.8,1,2.5,1.7
				c0.7,0.7,1.2,1.6,1.6,2.5c0.4,1,0.6,2,0.6,3c0,1-0.2,2-0.6,3c-0.4,1-0.9,1.8-1.6,2.5c-0.7,0.7-1.5,1.3-2.5,1.7
				S264.8,223,263.7,223z M259.1,215.2c0,0.7,0.1,1.4,0.3,2c0.2,0.6,0.6,1.2,1,1.6c0.4,0.5,0.9,0.8,1.4,1.1c0.6,0.3,1.1,0.4,1.8,0.4
				c0.6,0,1.2-0.1,1.8-0.4c0.6-0.3,1-0.6,1.4-1.1c0.4-0.5,0.7-1,1-1.6c0.2-0.6,0.3-1.3,0.3-2c0-0.7-0.1-1.4-0.3-2
				c-0.2-0.6-0.6-1.2-1-1.6c-0.4-0.5-0.9-0.8-1.4-1.1c-0.6-0.3-1.1-0.4-1.8-0.4c-0.6,0-1.2,0.1-1.8,0.4c-0.6,0.3-1,0.6-1.4,1.1
				c-0.4,0.5-0.7,1-1,1.6C259.3,213.8,259.1,214.5,259.1,215.2z"/>
			<path class="st3" d="M274.4,201.5h3.2v16.8c0,0.6,0.1,1,0.4,1.3s0.7,0.5,1.2,0.5c0.2,0,0.5,0,0.7-0.1c0.3-0.1,0.5-0.2,0.8-0.3
				l0.5,2.5c-0.5,0.2-1,0.4-1.7,0.5c-0.6,0.1-1.2,0.2-1.7,0.2c-1.1,0-2-0.3-2.6-0.9c-0.6-0.6-0.9-1.5-0.9-2.6V201.5z"/>
			<path class="st3" d="M287.7,223c-1.6,0-2.8-0.5-3.6-1.6c-0.8-1-1.2-2.6-1.2-4.6v-9.3h3.2v8.7c0,2.7,1,4.1,2.9,4.1
				c0.9,0,1.8-0.3,2.6-0.8c0.8-0.6,1.4-1.4,1.9-2.4v-9.5h3.2v11.4c0,0.4,0.1,0.6,0.2,0.8c0.1,0.2,0.4,0.2,0.7,0.3v2.7
				c-0.3,0.1-0.6,0.1-0.8,0.1c-0.2,0-0.4,0-0.6,0c-0.6,0-1.1-0.2-1.5-0.5c-0.4-0.3-0.6-0.7-0.6-1.2l-0.1-1.5
				c-0.7,1.1-1.6,1.9-2.6,2.5C290.2,222.7,289,223,287.7,223z"/>
			<path class="st3" d="M299.8,215.1c0-1.1,0.2-2.1,0.6-3c0.4-0.9,0.9-1.8,1.6-2.5c0.7-0.7,1.5-1.3,2.5-1.7c1-0.4,2.1-0.6,3.3-0.6
				c1.6,0,2.9,0.3,4,1c1.1,0.7,2,1.6,2.5,2.7l-3.1,1c-0.4-0.6-0.9-1.1-1.5-1.5c-0.6-0.4-1.3-0.5-2.1-0.5c-0.6,0-1.2,0.1-1.8,0.4
				c-0.6,0.3-1,0.6-1.4,1.1c-0.4,0.5-0.7,1-1,1.6c-0.2,0.6-0.3,1.3-0.3,2.1c0,0.7,0.1,1.4,0.4,2c0.2,0.6,0.6,1.2,1,1.6
				c0.4,0.5,0.9,0.8,1.5,1.1c0.6,0.3,1.1,0.4,1.8,0.4c0.4,0,0.8-0.1,1.2-0.2c0.4-0.1,0.7-0.3,1.1-0.5c0.3-0.2,0.6-0.4,0.8-0.7
				c0.2-0.3,0.4-0.5,0.5-0.8l3.1,0.9c-0.5,1.1-1.3,2.1-2.5,2.8c-1.2,0.7-2.6,1.1-4.2,1.1c-1.2,0-2.3-0.2-3.2-0.6
				c-1-0.4-1.8-1-2.5-1.7c-0.7-0.7-1.2-1.6-1.6-2.5C299.9,217.2,299.8,216.2,299.8,215.1z"/>
			<path class="st3" d="M317,205v-3.5h3.2v3.5H317z M317,222.7v-15.2h3.2v15.2H317z"/>
			<path class="st3" d="M330.8,223c-1.2,0-2.3-0.2-3.2-0.6c-1-0.4-1.8-1-2.5-1.7c-0.7-0.7-1.2-1.6-1.6-2.5c-0.4-1-0.6-2-0.6-3
				c0-1,0.2-2,0.6-3c0.4-1,0.9-1.8,1.6-2.5c0.7-0.7,1.5-1.3,2.5-1.7s2-0.6,3.2-0.6c1.2,0,2.3,0.2,3.2,0.6s1.8,1,2.5,1.7
				c0.7,0.7,1.2,1.6,1.6,2.5c0.4,1,0.6,2,0.6,3c0,1-0.2,2-0.6,3c-0.4,1-0.9,1.8-1.6,2.5c-0.7,0.7-1.5,1.3-2.5,1.7S332,223,330.8,223
				z M326.3,215.2c0,0.7,0.1,1.4,0.3,2c0.2,0.6,0.6,1.2,1,1.6c0.4,0.5,0.9,0.8,1.4,1.1c0.6,0.3,1.1,0.4,1.8,0.4
				c0.6,0,1.2-0.1,1.8-0.4c0.6-0.3,1-0.6,1.4-1.1c0.4-0.5,0.7-1,1-1.6c0.2-0.6,0.3-1.3,0.3-2c0-0.7-0.1-1.4-0.3-2
				c-0.2-0.6-0.6-1.2-1-1.6c-0.4-0.5-0.9-0.8-1.4-1.1c-0.6-0.3-1.1-0.4-1.8-0.4c-0.6,0-1.2,0.1-1.8,0.4c-0.6,0.3-1,0.6-1.4,1.1
				c-0.4,0.5-0.7,1-1,1.6C326.4,213.8,326.3,214.5,326.3,215.2z"/>
			<path class="st3" d="M355.1,222.7h-3.2v-8.5c0-1.4-0.2-2.5-0.7-3.1c-0.5-0.6-1.1-1-2-1c-0.5,0-0.9,0.1-1.4,0.3
				c-0.5,0.2-0.9,0.4-1.3,0.7c-0.4,0.3-0.8,0.7-1.1,1.1c-0.3,0.4-0.6,0.9-0.7,1.4v9h-3.2v-15.2h2.9v3c0.6-1,1.4-1.8,2.5-2.4
				c1.1-0.6,2.3-0.9,3.7-0.9c0.9,0,1.7,0.2,2.2,0.5c0.6,0.3,1,0.8,1.4,1.3c0.3,0.6,0.6,1.2,0.7,2c0.1,0.7,0.2,1.5,0.2,2.4V222.7z"/>
			<path class="st3" d="M365.7,223c-1.2,0-2.3-0.2-3.2-0.6c-1-0.4-1.8-1-2.5-1.7c-0.7-0.7-1.2-1.5-1.6-2.5c-0.4-0.9-0.6-2-0.6-3
				c0-1.1,0.2-2.1,0.6-3c0.4-1,0.9-1.8,1.6-2.5c0.7-0.7,1.5-1.3,2.5-1.7c1-0.4,2.1-0.6,3.3-0.6c1.2,0,2.2,0.2,3.2,0.6
				c1,0.4,1.8,1,2.5,1.7c0.7,0.7,1.2,1.5,1.6,2.5c0.4,0.9,0.5,1.9,0.5,2.9c0,0.2,0,0.5,0,0.7c0,0.2,0,0.4-0.1,0.5h-12.2
				c0.1,0.7,0.2,1.3,0.5,1.8c0.3,0.5,0.6,1,1,1.4c0.4,0.4,0.9,0.7,1.4,0.9c0.5,0.2,1.1,0.3,1.7,0.3c0.4,0,0.8-0.1,1.3-0.2
				c0.4-0.1,0.8-0.3,1.1-0.5c0.3-0.2,0.7-0.5,0.9-0.7s0.5-0.6,0.6-1l2.7,0.8c-0.5,1.1-1.4,2.1-2.6,2.8
				C368.7,222.6,367.3,223,365.7,223z M370.3,214c-0.1-0.6-0.2-1.2-0.5-1.8c-0.3-0.5-0.6-1-1-1.4c-0.4-0.4-0.9-0.7-1.4-0.9
				c-0.5-0.2-1.1-0.3-1.7-0.3c-0.6,0-1.2,0.1-1.7,0.3c-0.5,0.2-1,0.5-1.4,0.9c-0.4,0.4-0.7,0.8-1,1.4c-0.3,0.5-0.4,1.1-0.5,1.8
				H370.3z"/>
			<path class="st3" d="M381.6,223c-1.2,0-2.4-0.2-3.6-0.6c-1.2-0.4-2.2-1-3.1-1.7l1.3-2c0.9,0.7,1.8,1.2,2.7,1.5
				c0.9,0.3,1.8,0.5,2.7,0.5c0.9,0,1.7-0.2,2.3-0.6c0.6-0.4,0.8-0.9,0.8-1.6c0-0.6-0.3-1.1-0.9-1.4c-0.6-0.3-1.6-0.6-2.9-1
				c-0.9-0.3-1.8-0.5-2.4-0.7c-0.7-0.2-1.2-0.5-1.7-0.8s-0.7-0.7-0.9-1.1c-0.2-0.4-0.3-0.9-0.3-1.5c0-0.8,0.2-1.5,0.5-2.1
				c0.3-0.6,0.7-1.1,1.2-1.5c0.5-0.4,1.2-0.7,1.9-0.9c0.7-0.2,1.5-0.3,2.3-0.3c1.1,0,2.2,0.2,3.2,0.5s1.9,0.9,2.6,1.5l-1.4,1.9
				c-1.4-1.1-2.9-1.7-4.5-1.7c-0.8,0-1.5,0.2-2,0.5c-0.6,0.3-0.8,0.9-0.8,1.6c0,0.3,0.1,0.6,0.2,0.8c0.1,0.2,0.3,0.4,0.6,0.6
				c0.3,0.2,0.6,0.3,1,0.4c0.4,0.1,0.9,0.3,1.6,0.4c1,0.3,1.9,0.5,2.7,0.8c0.7,0.3,1.4,0.5,1.8,0.9c0.5,0.3,0.8,0.7,1.1,1.2
				c0.2,0.5,0.3,1,0.3,1.6c0,1.5-0.5,2.6-1.6,3.4C384.9,222.6,383.5,223,381.6,223z"/>
			<path class="st3" d="M412.4,205h-6.9v17.7h-3.3V205h-6.9v-2.9h17V205z"/>
			<path class="st3" d="M418.3,223c-1.2,0-2.3-0.2-3.2-0.6c-1-0.4-1.8-1-2.5-1.7c-0.7-0.7-1.2-1.5-1.6-2.5c-0.4-0.9-0.6-2-0.6-3
				c0-1.1,0.2-2.1,0.6-3c0.4-1,0.9-1.8,1.6-2.5c0.7-0.7,1.5-1.3,2.5-1.7c1-0.4,2.1-0.6,3.3-0.6c1.2,0,2.2,0.2,3.2,0.6
				c1,0.4,1.8,1,2.5,1.7c0.7,0.7,1.2,1.5,1.6,2.5c0.4,0.9,0.5,1.9,0.5,2.9c0,0.2,0,0.5,0,0.7c0,0.2,0,0.4-0.1,0.5h-12.2
				c0.1,0.7,0.2,1.3,0.5,1.8c0.3,0.5,0.6,1,1,1.4c0.4,0.4,0.9,0.7,1.4,0.9c0.5,0.2,1.1,0.3,1.7,0.3c0.4,0,0.8-0.1,1.3-0.2
				c0.4-0.1,0.8-0.3,1.1-0.5c0.3-0.2,0.7-0.5,0.9-0.7s0.5-0.6,0.6-1l2.7,0.8c-0.5,1.1-1.4,2.1-2.6,2.8
				C421.3,222.6,419.9,223,418.3,223z M422.9,214c-0.1-0.6-0.2-1.2-0.5-1.8c-0.3-0.5-0.6-1-1-1.4c-0.4-0.4-0.9-0.7-1.4-0.9
				c-0.5-0.2-1.1-0.3-1.7-0.3c-0.6,0-1.2,0.1-1.7,0.3c-0.5,0.2-1,0.5-1.4,0.9c-0.4,0.4-0.7,0.8-1,1.4c-0.3,0.5-0.4,1.1-0.5,1.8
				H422.9z"/>
			<path class="st3" d="M427.7,215.1c0-1.1,0.2-2.1,0.6-3c0.4-0.9,0.9-1.8,1.6-2.5c0.7-0.7,1.5-1.3,2.5-1.7c1-0.4,2.1-0.6,3.3-0.6
				c1.6,0,2.9,0.3,4,1c1.1,0.7,2,1.6,2.5,2.7l-3.1,1c-0.4-0.6-0.9-1.1-1.5-1.5c-0.6-0.4-1.3-0.5-2.1-0.5c-0.6,0-1.2,0.1-1.8,0.4
				c-0.6,0.3-1,0.6-1.4,1.1c-0.4,0.5-0.7,1-1,1.6c-0.2,0.6-0.3,1.3-0.3,2.1c0,0.7,0.1,1.4,0.4,2c0.2,0.6,0.6,1.2,1,1.6
				c0.4,0.5,0.9,0.8,1.5,1.1c0.6,0.3,1.1,0.4,1.8,0.4c0.4,0,0.8-0.1,1.2-0.2c0.4-0.1,0.7-0.3,1.1-0.5c0.3-0.2,0.6-0.4,0.8-0.7
				c0.2-0.3,0.4-0.5,0.5-0.8l3.1,0.9c-0.5,1.1-1.3,2.1-2.5,2.8c-1.2,0.7-2.6,1.1-4.2,1.1c-1.2,0-2.3-0.2-3.2-0.6
				c-1-0.4-1.8-1-2.5-1.7c-0.7-0.7-1.2-1.6-1.6-2.5C427.9,217.2,427.7,216.2,427.7,215.1z"/>
			<path class="st3" d="M458.5,222.7h-3.2v-8.5c0-1.4-0.2-2.5-0.7-3.1c-0.5-0.6-1.1-1-2-1c-0.5,0-0.9,0.1-1.4,0.3
				c-0.5,0.2-0.9,0.4-1.3,0.7c-0.4,0.3-0.8,0.7-1.1,1.1c-0.3,0.4-0.6,0.9-0.7,1.4v9h-3.2v-15.2h2.9v3c0.6-1,1.4-1.8,2.5-2.4
				c1.1-0.6,2.3-0.9,3.7-0.9c0.9,0,1.7,0.2,2.2,0.5c0.6,0.3,1,0.8,1.4,1.3c0.3,0.6,0.6,1.2,0.7,2c0.1,0.7,0.2,1.5,0.2,2.4V222.7z"/>
			<path class="st3" d="M469.1,223c-1.2,0-2.3-0.2-3.2-0.6c-1-0.4-1.8-1-2.5-1.7c-0.7-0.7-1.2-1.6-1.6-2.5c-0.4-1-0.6-2-0.6-3
				c0-1,0.2-2,0.6-3c0.4-1,0.9-1.8,1.6-2.5c0.7-0.7,1.5-1.3,2.5-1.7s2-0.6,3.2-0.6c1.2,0,2.3,0.2,3.2,0.6s1.8,1,2.5,1.7
				c0.7,0.7,1.2,1.6,1.6,2.5c0.4,1,0.6,2,0.6,3c0,1-0.2,2-0.6,3c-0.4,1-0.9,1.8-1.6,2.5c-0.7,0.7-1.5,1.3-2.5,1.7
				S470.2,223,469.1,223z M464.5,215.2c0,0.7,0.1,1.4,0.3,2c0.2,0.6,0.6,1.2,1,1.6c0.4,0.5,0.9,0.8,1.4,1.1c0.6,0.3,1.1,0.4,1.8,0.4
				s1.2-0.1,1.8-0.4c0.6-0.3,1-0.6,1.4-1.1c0.4-0.5,0.7-1,1-1.6c0.2-0.6,0.3-1.3,0.3-2c0-0.7-0.1-1.4-0.3-2c-0.2-0.6-0.6-1.2-1-1.6
				c-0.4-0.5-0.9-0.8-1.4-1.1c-0.6-0.3-1.1-0.4-1.8-0.4c-0.6,0-1.2,0.1-1.8,0.4c-0.6,0.3-1,0.6-1.4,1.1c-0.4,0.5-0.7,1-1,1.6
				C464.6,213.8,464.5,214.5,464.5,215.2z"/>
			<path class="st3" d="M479.7,201.5h3.2v16.8c0,0.6,0.1,1,0.4,1.3s0.7,0.5,1.2,0.5c0.2,0,0.5,0,0.7-0.1c0.3-0.1,0.5-0.2,0.8-0.3
				l0.5,2.5c-0.5,0.2-1,0.4-1.7,0.5c-0.6,0.1-1.2,0.2-1.7,0.2c-1.1,0-2-0.3-2.6-0.9c-0.6-0.6-0.9-1.5-0.9-2.6V201.5z"/>
			<path class="st3" d="M495.3,223c-1.2,0-2.3-0.2-3.2-0.6c-1-0.4-1.8-1-2.5-1.7c-0.7-0.7-1.2-1.6-1.6-2.5c-0.4-1-0.6-2-0.6-3
				c0-1,0.2-2,0.6-3c0.4-1,0.9-1.8,1.6-2.5c0.7-0.7,1.5-1.3,2.5-1.7s2-0.6,3.2-0.6c1.2,0,2.3,0.2,3.2,0.6s1.8,1,2.5,1.7
				c0.7,0.7,1.2,1.6,1.6,2.5c0.4,1,0.6,2,0.6,3c0,1-0.2,2-0.6,3c-0.4,1-0.9,1.8-1.6,2.5c-0.7,0.7-1.5,1.3-2.5,1.7
				S496.4,223,495.3,223z M490.7,215.2c0,0.7,0.1,1.4,0.3,2c0.2,0.6,0.6,1.2,1,1.6c0.4,0.5,0.9,0.8,1.4,1.1c0.6,0.3,1.1,0.4,1.8,0.4
				c0.6,0,1.2-0.1,1.8-0.4c0.6-0.3,1-0.6,1.4-1.1c0.4-0.5,0.7-1,1-1.6c0.2-0.6,0.3-1.3,0.3-2c0-0.7-0.1-1.4-0.3-2
				c-0.2-0.6-0.6-1.2-1-1.6c-0.4-0.5-0.9-0.8-1.4-1.1c-0.6-0.3-1.1-0.4-1.8-0.4c-0.6,0-1.2,0.1-1.8,0.4c-0.6,0.3-1,0.6-1.4,1.1
				c-0.4,0.5-0.7,1-1,1.6C490.9,213.8,490.7,214.5,490.7,215.2z M496,205.4l-2.1-0.6l1.7-3.2h3L496,205.4z"/>
			<path class="st3" d="M511.9,222.9c-1,0-2-0.2-2.8-0.6c-0.9-0.4-1.6-1-2.2-1.7c-0.6-0.7-1.1-1.5-1.4-2.5c-0.3-0.9-0.5-1.9-0.5-2.9
				c0-1.1,0.2-2.1,0.5-3.1c0.3-1,0.8-1.8,1.5-2.5c0.6-0.7,1.4-1.3,2.2-1.7c0.9-0.4,1.8-0.6,2.9-0.6c1.2,0,2.3,0.3,3.2,0.9
				c0.9,0.6,1.7,1.3,2.3,2.3v-2.9h2.8v14.7c0,1.1-0.2,2.1-0.6,2.9c-0.4,0.9-1,1.6-1.7,2.2c-0.7,0.6-1.6,1-2.6,1.3s-2.1,0.5-3.2,0.5
				c-1.7,0-3.1-0.3-4.2-0.9c-1.1-0.6-2-1.4-2.8-2.4l1.8-1.7c0.6,0.8,1.3,1.4,2.2,1.9c0.9,0.4,1.9,0.6,2.9,0.6c0.7,0,1.3-0.1,1.9-0.3
				c0.6-0.2,1.1-0.4,1.6-0.8c0.4-0.4,0.8-0.8,1.1-1.4c0.3-0.6,0.4-1.2,0.4-2V220c-0.5,0.9-1.3,1.6-2.2,2.1S513,222.9,511.9,222.9z
				 M513,220.3c0.5,0,0.9-0.1,1.4-0.2c0.4-0.2,0.9-0.4,1.2-0.7c0.4-0.3,0.7-0.6,1-1c0.3-0.4,0.5-0.7,0.6-1.1v-4
				c-0.2-0.5-0.4-0.9-0.8-1.3c-0.3-0.4-0.7-0.7-1.1-1c-0.4-0.3-0.8-0.5-1.3-0.7s-0.9-0.2-1.3-0.2c-0.7,0-1.3,0.2-1.9,0.4
				c-0.6,0.3-1,0.7-1.4,1.2c-0.4,0.5-0.7,1-0.9,1.7c-0.2,0.6-0.3,1.3-0.3,1.9c0,0.7,0.1,1.3,0.4,2c0.2,0.6,0.6,1.1,1,1.6
				c0.4,0.5,0.9,0.8,1.5,1.1C511.7,220.1,512.3,220.3,513,220.3z"/>
			<path class="st3" d="M524.2,205v-3.5h3.2v3.5H524.2z M524.2,222.7v-15.2h3.2v15.2H524.2z"/>
			<path class="st3" d="M530.2,215.1c0-1.1,0.2-2.1,0.6-3c0.4-0.9,0.9-1.8,1.6-2.5c0.7-0.7,1.5-1.3,2.5-1.7c1-0.4,2.1-0.6,3.3-0.6
				c1.6,0,2.9,0.3,4,1c1.1,0.7,2,1.6,2.5,2.7l-3.1,1c-0.4-0.6-0.9-1.1-1.5-1.5c-0.6-0.4-1.3-0.5-2.1-0.5c-0.6,0-1.2,0.1-1.8,0.4
				c-0.6,0.3-1,0.6-1.4,1.1c-0.4,0.5-0.7,1-1,1.6c-0.2,0.6-0.3,1.3-0.3,2.1c0,0.7,0.1,1.4,0.4,2c0.2,0.6,0.6,1.2,1,1.6
				c0.4,0.5,0.9,0.8,1.5,1.1c0.6,0.3,1.1,0.4,1.8,0.4c0.4,0,0.8-0.1,1.2-0.2c0.4-0.1,0.7-0.3,1.1-0.5c0.3-0.2,0.6-0.4,0.8-0.7
				c0.2-0.3,0.4-0.5,0.5-0.8l3.1,0.9c-0.5,1.1-1.3,2.1-2.5,2.8c-1.2,0.7-2.6,1.1-4.2,1.1c-1.2,0-2.3-0.2-3.2-0.6
				c-1-0.4-1.8-1-2.5-1.7c-0.7-0.7-1.2-1.6-1.6-2.5C530.4,217.2,530.2,216.2,530.2,215.1z"/>
			<path class="st3" d="M551.5,223c-0.7,0-1.4-0.1-2-0.4c-0.6-0.2-1.2-0.6-1.6-1c-0.5-0.4-0.8-0.9-1.1-1.5c-0.3-0.6-0.4-1.2-0.4-1.9
				c0-0.7,0.2-1.4,0.5-1.9s0.8-1.1,1.3-1.5c0.6-0.4,1.2-0.8,2-1c0.8-0.2,1.7-0.3,2.6-0.3c0.7,0,1.4,0.1,2.1,0.2
				c0.7,0.1,1.3,0.3,1.9,0.5v-1c0-1.1-0.3-2-1-2.6c-0.6-0.6-1.6-0.9-2.8-0.9c-0.8,0-1.6,0.2-2.4,0.5c-0.8,0.3-1.6,0.7-2.4,1.3l-1-2
				c2-1.3,4-2,6.1-2c2.1,0,3.7,0.5,4.9,1.6c1.2,1.1,1.7,2.6,1.7,4.6v5.5c0,0.7,0.3,1,0.8,1v2.7c-0.3,0.1-0.6,0.1-0.8,0.1
				c-0.2,0-0.4,0-0.7,0c-0.6,0-1.1-0.2-1.4-0.5c-0.3-0.3-0.5-0.7-0.6-1.2l-0.1-1c-0.7,0.9-1.5,1.6-2.5,2
				C553.7,222.8,552.6,223,551.5,223z M552.3,220.7c0.8,0,1.5-0.1,2.2-0.4c0.7-0.3,1.2-0.7,1.6-1.2c0.4-0.3,0.6-0.7,0.6-1.1v-2
				c-0.5-0.2-1.1-0.4-1.7-0.5c-0.6-0.1-1.2-0.2-1.8-0.2c-1.1,0-2.1,0.2-2.8,0.7c-0.7,0.5-1.1,1.1-1.1,2c0,0.8,0.3,1.4,0.8,1.9
				C550.7,220.4,551.5,220.7,552.3,220.7z"/>
			<path class="st3" d="M569.3,223c-1.2,0-2.4-0.2-3.6-0.6c-1.2-0.4-2.2-1-3.1-1.7l1.3-2c0.9,0.7,1.8,1.2,2.7,1.5
				c0.9,0.3,1.8,0.5,2.7,0.5c0.9,0,1.7-0.2,2.3-0.6c0.6-0.4,0.8-0.9,0.8-1.6c0-0.6-0.3-1.1-0.9-1.4c-0.6-0.3-1.6-0.6-2.9-1
				c-0.9-0.3-1.8-0.5-2.4-0.7c-0.7-0.2-1.2-0.5-1.7-0.8c-0.4-0.3-0.7-0.7-0.9-1.1c-0.2-0.4-0.3-0.9-0.3-1.5c0-0.8,0.2-1.5,0.5-2.1
				c0.3-0.6,0.7-1.1,1.2-1.5c0.5-0.4,1.2-0.7,1.9-0.9c0.7-0.2,1.5-0.3,2.3-0.3c1.1,0,2.2,0.2,3.2,0.5s1.9,0.9,2.6,1.5l-1.4,1.9
				c-1.4-1.1-2.9-1.7-4.5-1.7c-0.8,0-1.5,0.2-2,0.5c-0.6,0.3-0.8,0.9-0.8,1.6c0,0.3,0.1,0.6,0.2,0.8c0.1,0.2,0.3,0.4,0.6,0.6
				c0.3,0.2,0.6,0.3,1,0.4c0.4,0.1,0.9,0.3,1.6,0.4c1,0.3,1.9,0.5,2.7,0.8c0.7,0.3,1.4,0.5,1.8,0.9c0.5,0.3,0.8,0.7,1.1,1.2
				c0.2,0.5,0.3,1,0.3,1.6c0,1.5-0.5,2.6-1.6,3.4C572.7,222.6,571.2,223,569.3,223z"/>
		</g>
		<g>
			<path class="st4" d="M78,73.6v13.8H35.5c-2.2,0-4.1-0.8-5.7-2.3c-1.6-1.6-2.4-3.5-2.4-5.8V24.3h49.5V38h-43L45,43.4v5.3h28.1V62
				H45v11.6H78z"/>
			<path class="st4" d="M124.8,87.3c-2.1,0-3.8-0.9-5-2.6l-6.9-10.2L105.2,85c-1.1,1.5-2.7,2.3-4.6,2.3H84.9l18.6-24.4l-18-24.4
				h15.2c2.7,0,4.8,1.1,6.3,3.2l3.8,5.5l-3,11.4l12.4-17.2c1.5-1.9,3.4-2.9,5.8-2.9h14.4l-18,23.7l18.7,25.1H124.8z"/>
			<path class="st4" d="M178.8,37.6c6.8,0,12.5,2.3,17.1,6.9c4.6,4.6,6.9,10.7,6.9,18.3c0,7.6-2.3,13.7-6.9,18.3
				c-4.6,4.6-10.3,6.9-17.1,6.9c-5.7,0-10.3-1.7-13.6-5.2V100c0,1.3-0.5,2.4-1.4,3.3c-0.9,0.9-2,1.4-3.3,1.4h-12.4V44.1
				c0-1.5,0.6-2.8,1.7-4c1.1-1.1,2.5-1.7,4.1-1.7h10.5L156,50.3C163.6,41.8,171.2,37.6,178.8,37.6z M167.8,71.4
				c2,2.1,4.5,3.1,7.5,3.1c3,0,5.4-1,7.3-3.1c1.9-2.1,2.9-4.9,2.9-8.5s-1-6.4-2.9-8.5c-1.9-2.1-4.4-3.2-7.3-3.2
				c-3,0-5.4,1.1-7.4,3.2c-1.9,2.1-2.9,4.9-2.9,8.5S165.9,69.3,167.8,71.4z"/>
			<path class="st4" d="M262.7,62.9c0,0.2-0.1,1.6-0.2,4.2H227c0.2,0.7,0.5,1.3,0.8,1.9c2,4,5.7,6,11.2,6c4.2,0,7.9-1.4,11.2-4.2
				l6.4,6.6c0.8,0.8,1.1,1.7,1,2.8c-0.1,1.1-0.6,2-1.5,2.7c-4.4,3.4-10.4,5.2-17.8,5.2c-8.6,0-15.5-2.4-20.8-7.1
				c-5.3-4.7-7.9-10.8-7.9-18.2c0-7.3,2.5-13.4,7.6-18.1c5.1-4.7,11.5-7.1,19.2-7.1c7.5,0,13.7,2.3,18.7,6.8
				C260.3,48.9,262.7,55.1,262.7,62.9z M227.3,55.9c-0.1,0.2-1.5,0.6-4.2,1.1c-2.7,0.5-4.1,0.9-4.1,1.2h27.6
				c-0.5-2.6-1.6-4.6-3.3-6.1c-1.8-1.5-4-2.2-6.6-2.2C232.1,49.8,229,51.9,227.3,55.9z"/>
			<path class="st4" d="M276.8,47.4c4-4,7.8-6.7,11.3-8c3.5-1.3,7.4-1.9,11.8-1.9V53c-1.5-0.2-2.8-0.2-3.8-0.2c-3.7,0-6.6,1-8.7,2.9
				c-2.1,1.9-3.2,5-3.2,9.1V83c0,1.2-0.4,2.3-1.2,3.1c-0.8,0.8-1.8,1.3-3,1.3h-12.8V42.5c0-1.1,0.4-2.1,1.2-2.9
				c0.8-0.8,1.7-1.1,2.8-1.1h12.3L276.8,47.4z"/>
			<path class="st4" d="M343,77.7l2.8,7.6c-2.9,1.9-6.9,2.9-11.9,2.9c-6.3,0-11.2-1.6-14.7-4.7c-3.4-3.1-5.2-7.8-5.2-14V53h-7.1
				V40.2h18.7L314,35.4v-7.9h12.6c0.8,0,1.6,0.2,2.3,0.6c0.7,0.4,1.2,1,1.6,1.7c0.4,0.7,0.6,1.5,0.6,2.3v8.1h11.2V53h-11.2v16.2
				c0,1.8,0.5,3.2,1.4,4.2c1,1,2.2,1.4,3.7,1.4c0.5,0,1,0,1.5-0.1c1.2-0.2,2.3,0,3.3,0.6C341.9,75.8,342.6,76.6,343,77.7z"/>
			<path class="st4" d="M403.1,62.9c0,0.2-0.1,1.6-0.2,4.2h-35.5c0.2,0.7,0.5,1.3,0.8,1.9c2,4,5.7,6,11.2,6c4.2,0,7.9-1.4,11.2-4.2
				l6.4,6.6c0.8,0.8,1.1,1.7,1,2.8c-0.1,1.1-0.6,2-1.5,2.7c-4.4,3.4-10.4,5.2-17.8,5.2c-8.6,0-15.5-2.4-20.8-7.1
				c-5.3-4.7-7.9-10.8-7.9-18.2c0-7.3,2.5-13.4,7.6-18.1c5.1-4.7,11.5-7.1,19.2-7.1c7.5,0,13.7,2.3,18.7,6.8
				C400.6,48.9,403.1,55.1,403.1,62.9z M367.6,55.9c-0.1,0.2-1.5,0.6-4.2,1.1c-2.7,0.5-4.1,0.9-4.1,1.2H387
				c-0.5-2.6-1.6-4.6-3.3-6.1c-1.8-1.5-4-2.2-6.6-2.2C372.5,49.8,369.3,51.9,367.6,55.9z"/>
			<path class="st4" d="M438.2,88.1c-8.3,0-15-2.4-20.2-7.1c-5.2-4.7-7.9-10.8-7.9-18.2c0-7.3,2.6-13.4,7.9-18.1
				c5.2-4.7,12-7.1,20.2-7.1c5.5,0,10.3,1.2,14.3,3.6c4,2.4,6.9,5.7,8.5,10l-8.9,4.5c-1.1,0.6-2.2,0.8-3.4,0.6
				c-1.2-0.2-2.3-0.7-3.1-1.7c-2-2.2-4.5-3.3-7.5-3.3c-3.1,0-5.7,1-7.7,3.1c-2,2.1-3,4.9-3,8.5c0,3.7,1,6.5,3,8.6
				c2,2.1,4.5,3.1,7.7,3.1c4.2,0,7.5-2.2,9.7-6.5l9.7,4.9c1,0.5,1.7,1.3,2,2.4c0.3,1.1,0.2,2.1-0.4,3c-2.1,3.1-4.9,5.6-8.5,7.3
				C447,87.3,442.8,88.1,438.2,88.1z"/>
			<path class="st4" d="M499.7,37.6c6.1,0,11,1.8,14.7,5.4c3.7,3.6,5.6,9.1,5.6,16.3v28h-12.8c-1.2,0-2.3-0.4-3.1-1.3
				c-0.8-0.8-1.3-1.9-1.3-3.1V62.1c0-6.6-2.7-10-8-10c-2.9,0-5.3,1-7.1,2.9c-1.8,1.9-2.7,4.8-2.7,8.7v23.6h-13.3
				c-1,0-1.9-0.4-2.6-1.1c-0.8-0.8-1.1-1.7-1.1-2.8V20.4h11.4c1.6,0,3,0.6,4.1,1.7c1.1,1.1,1.7,2.5,1.7,4v12.2l-5.5,11.9
				c2.4-4.2,5.6-7.4,9.4-9.5C492.8,38.6,496.4,37.6,499.7,37.6z"/>
			<path class="st4" d="M548.6,88.1c-4.1,0-8.2-0.5-12.1-1.4c-3.9-1-7.1-2.2-9.6-3.6l2.9-6.6c0.6-1.3,1.5-2.2,2.8-2.8
				c1.3-0.6,2.5-0.6,3.8-0.2c4.1,1.6,8.3,2.4,12.6,2.4c5.1,0,7.7-1.1,7.7-3.3c0-0.9-0.5-1.6-1.5-2.1c-1-0.5-2.4-0.9-4.1-1.1
				c-1.7-0.2-3.6-0.5-5.7-0.7c-2.1-0.3-4.1-0.7-6.1-1.3c-2-0.6-3.9-1.4-5.6-2.3c-1.7-1-3.1-2.4-4.1-4.3c-1-1.9-1.5-4.1-1.5-6.8
				c0-4.7,2.1-8.6,6.3-11.7s10-4.6,17.4-4.6c7.9,0,14.3,1.4,19.3,4.2l-2.9,6.5c-0.6,1.3-1.6,2.2-2.9,2.8c-1.3,0.6-2.7,0.6-4.2,0.1
				c-2.9-0.9-6-1.4-9.2-1.4c-5.2,0-7.8,1.1-7.8,3.3c0,1.1,0.7,1.9,2.1,2.5c1.4,0.6,3.2,1,5.3,1.1c2.1,0.2,4.4,0.6,6.9,1.1
				c2.5,0.6,4.8,1.3,6.9,2.1c2.1,0.8,3.9,2.3,5.3,4.4c1.4,2.1,2.1,4.6,2.1,7.7c0,4.7-2.1,8.5-6.3,11.5
				C562.1,86.6,556.2,88.1,548.6,88.1z"/>
		</g>
		<g>
			<path class="st4" d="M189.5,185.1c-7.8,0-14.9-1.7-21.2-5c-6.3-3.3-11.3-8-14.8-13.9c-3.6-5.9-5.3-12.5-5.3-19.8
				c0-11.2,3.9-20.4,11.8-27.7c7.8-7.3,17.7-11,29.6-11c11.9,0,21.8,3.7,29.6,11c7.9,7.3,11.8,16.6,11.8,27.7
				c0,11.2-3.9,20.4-11.8,27.7C211.3,181.5,201.4,185.1,189.5,185.1z M209.5,146.4c0-4.2-0.9-8-2.6-11.2c-1.8-3.2-4.2-5.7-7.2-7.4
				c-3.1-1.7-6.5-2.6-10.2-2.6c-3.7,0-7.1,0.9-10.1,2.6c-3,1.7-5.4,4.2-7.2,7.4c-1.8,3.2-2.7,7-2.7,11.2c0,6.3,1.9,11.4,5.8,15.4
				c3.8,3.9,8.6,5.9,14.4,5.9c5.8,0,10.6-2,14.3-5.9C207.6,157.9,209.5,152.7,209.5,146.4z"/>
			<path class="st4" d="M250.4,136.5c4.8-4.8,9.2-7.9,13.3-9.4c4.1-1.5,8.7-2.2,13.9-2.2v18.3c-1.8-0.2-3.3-0.3-4.5-0.3
				c-4.3,0-7.7,1.2-10.2,3.5c-2.5,2.3-3.7,5.9-3.7,10.8v21.4c0,1.4-0.5,2.7-1.4,3.7c-0.9,1-2.1,1.5-3.6,1.5H239v-52.9
				c0-1.4,0.5-2.5,1.4-3.4c0.9-0.9,2.1-1.4,3.3-1.4h14.5L250.4,136.5z"/>
			<path class="st4" d="M298.2,119.5c-3.6,0-6.6-1-8.9-3c-2.3-2-3.5-4.6-3.5-7.6c0-3.1,1.2-5.6,3.5-7.6c2.3-2,5.3-3,8.9-3
				c2.4,0,4.6,0.4,6.5,1.3c1.9,0.9,3.3,2.1,4.3,3.7c1,1.6,1.5,3.4,1.5,5.5c0,2.1-0.5,3.9-1.5,5.6c-1,1.7-2.4,3-4.3,3.9
				C302.8,119,300.6,119.5,298.2,119.5z M288,176.2V126h13.5c1.9,0,3.5,0.6,4.8,1.9c1.3,1.3,2,2.8,2,4.7v51h-12.9
				c-2.1,0-3.8-0.7-5.3-2.2C288.7,180,288,178.3,288,176.2z"/>
			<path class="st4" d="M381.3,154.8c0,0.3-0.1,1.9-0.3,5h-42c0.3,0.8,0.6,1.6,0.9,2.3c2.3,4.7,6.8,7,13.3,7c5,0,9.4-1.7,13.3-5
				l7.6,7.8c0.9,0.9,1.3,2,1.2,3.3c-0.1,1.3-0.7,2.4-1.8,3.2c-5.2,4.1-12.2,6.1-21,6.1c-10.1,0-18.3-2.8-24.5-8.4
				c-6.2-5.6-9.3-12.8-9.3-21.5c0-8.7,3-15.8,9-21.4c6-5.6,13.6-8.4,22.7-8.4c8.8,0,16.2,2.7,22.1,8.1
				C378.3,138.3,381.3,145.6,381.3,154.8z M339.5,146.6c-0.1,0.3-1.7,0.7-4.9,1.3c-3.2,0.6-4.8,1.1-4.8,1.4h32.6
				c-0.5-3.1-1.9-5.5-3.9-7.2c-2.1-1.8-4.7-2.6-7.8-2.6C345.1,139.4,341.4,141.8,339.5,146.6z"/>
			<path class="st4" d="M427.1,124.9c4.6,0,8.6,0.9,12.1,2.6c3.5,1.8,6.3,4.6,8.5,8.5c2.2,3.9,3.2,8.8,3.2,14.5v33h-20.3v-29.8
				c0-7.8-3.2-11.8-9.5-11.8c-3.4,0-6.2,1.1-8.3,3.4c-2.1,2.3-3.2,5.7-3.2,10.3v19.9c0,2.2-0.8,4-2.3,5.6c-1.5,1.6-3.4,2.4-5.7,2.4
				h-12.2V133c0-2,0.7-3.7,2.1-5c1.4-1.4,3-2,4.9-2h12.2l-7.7,13c3.8-4.9,8-8.4,12.7-10.7C418.4,126,422.9,124.9,427.1,124.9z"/>
			<path class="st4" d="M501.7,172.3l3.2,8.9c-3.4,2.3-8.1,3.4-14.1,3.4c-7.5,0-13.3-1.8-17.3-5.5c-4.1-3.7-6.1-9.2-6.1-16.5v-19.4
				h-8.4V128h22.1l-13.7-5.7V113h14.9c1,0,1.9,0.2,2.7,0.7c0.8,0.5,1.4,1.2,1.9,2c0.4,0.8,0.7,1.7,0.7,2.7v9.6h13.3v15.2h-13.3v19.1
				c0,2.2,0.6,3.8,1.7,4.9c1.1,1.1,2.6,1.7,4.4,1.7c0.6,0,1.2,0,1.8-0.1c1.4-0.2,2.7,0,3.9,0.7C500.5,170.1,501.3,171,501.7,172.3z"
				/>
			<path class="st4" d="M572.6,154.8c0,0.3-0.1,1.9-0.3,5h-42c0.3,0.8,0.6,1.6,0.9,2.3c2.3,4.7,6.8,7,13.3,7c5,0,9.4-1.7,13.3-5
				l7.6,7.8c0.9,0.9,1.3,2,1.2,3.3c-0.1,1.3-0.7,2.4-1.8,3.2c-5.2,4.1-12.2,6.1-21,6.1c-10.1,0-18.3-2.8-24.5-8.4
				c-6.2-5.6-9.3-12.8-9.3-21.5c0-8.7,3-15.8,9-21.4c6-5.6,13.6-8.4,22.7-8.4c8.8,0,16.2,2.7,22.1,8.1
				C569.7,138.3,572.6,145.6,572.6,154.8z M530.8,146.6c-0.1,0.3-1.7,0.7-4.9,1.3c-3.2,0.6-4.8,1.1-4.8,1.4h32.6
				c-0.5-3.1-1.8-5.5-3.9-7.2c-2.1-1.8-4.7-2.6-7.8-2.6C536.5,139.4,532.8,141.8,530.8,146.6z"/>
		</g>
		<rect x="62.3" y="108.9" class="st1" width="6.5" height="10.2"/>
		<rect x="84.1" y="108.9" class="st1" width="6.5" height="10.2"/>
		<rect x="50.7" y="108.9" class="st1" width="6.5" height="10.2"/>
		<rect x="95.6" y="108.9" class="st1" width="6.5" height="10.2"/>
		<rect x="39.1" y="108.9" class="st1" width="6.5" height="10.2"/>
		<rect x="107.2" y="108.9" class="st1" width="6.5" height="10.2"/>
		<rect x="73.2" y="108.9" class="st1" width="6.5" height="10.2"/>
		<rect x="62.3" y="222.7" class="st1" width="6.5" height="10.2"/>
		<rect x="84.1" y="222.7" class="st1" width="6.5" height="10.2"/>
		<rect x="50.7" y="222.7" class="st1" width="6.5" height="10.2"/>
		<rect x="95.6" y="222.7" class="st1" width="6.5" height="10.2"/>
		<rect x="39.1" y="222.7" class="st1" width="6.5" height="10.2"/>
		<rect x="107.2" y="222.7" class="st1" width="6.5" height="10.2"/>
		<rect x="73.2" y="222.7" class="st1" width="6.5" height="10.2"/>
		<rect x="128.2" y="156.8" class="st1" width="10.2" height="6.5"/>
		<rect x="128.2" y="178.6" class="st1" width="10.2" height="6.5"/>
		<path class="st3" d="M211.3,201.7h-72.8v0h-10.2v6.5h3.2h7h72.8c1.8,0,3.2-1.4,3.2-3.2C214.5,203.1,213,201.7,211.3,201.7z"/>
		<rect x="128.2" y="167.7" class="st1" width="10.2" height="6.5"/>
		<path class="st1" d="M115.5,121.9H37.3c-5.5,0-9.9,4.5-9.9,9.9V210c0,5.5,4.5,9.9,9.9,9.9h78.2c5.5,0,9.9-4.5,9.9-9.9v-78.2
			C125.4,126.3,121,121.9,115.5,121.9z M115.5,213.5H37.3c-1.9,0-3.5-1.6-3.5-3.5v-25.6h18.7l5.8,6.7c-0.4,0.8-0.7,1.6-0.7,2.6
			c0,3,2.4,5.4,5.4,5.4c3,0,5.4-2.4,5.4-5.4s-2.4-5.4-5.4-5.4c-0.1,0-0.2,0-0.3,0l-7.8-9.1H33.8v-5.7h22l8.6-11.2
			c0.2,0,0.4,0.1,0.6,0.1c3,0,5.4-2.4,5.4-5.4c0-3-2.4-5.4-5.4-5.4c-3,0-5.4,2.4-5.4,5.4c0,0.8,0.2,1.6,0.5,2.3l-7,9H33.8v-5.7h6.3
			c1,1.3,2.5,2.2,4.3,2.2c3,0,5.4-2.4,5.4-5.4c0-3-2.4-5.4-5.4-5.4c-2.3,0-4.2,1.4-5,3.4h-5.5v-25.6c0-1.9,1.6-3.5,3.5-3.5h78.2
			c1.9,0,3.5,1.6,3.5,3.5v34.5h-18.4l-5.8-6.7c0.4-0.8,0.7-1.6,0.7-2.6c0-3-2.4-5.4-5.4-5.4c-3,0-5.4,2.4-5.4,5.4
			c0,3,2.4,5.4,5.4,5.4c0.1,0,0.2,0,0.3,0l7.8,9.1H119v5.7H87.4c-0.9-1.7-2.7-3-4.8-3c-3,0-5.4,2.4-5.4,5.4c0,3,2.4,5.4,5.4,5.4
			c2,0,3.7-1.1,4.6-2.6H119v5.7H113c-1-1.3-2.5-2.2-4.3-2.2c-3,0-5.4,2.4-5.4,5.4c0,3,2.4,5.4,5.4,5.4c2.3,0,4.2-1.4,5-3.4h5.2V210
			C119,211.9,117.4,213.5,115.5,213.5z"/>
		<path class="st2" d="M180.3,227.1v2.6c0,2.9,2.4,5.3,5.3,5.3h7.9c2.9,0,5.3-2.4,5.3-5.3v-2.6c6-0.4,10.7-5.4,10.7-11.4h-39.9
			C169.6,221.8,174.3,226.7,180.3,227.1z"/>
		<g>
			<linearGradient id="SVGID_1_" gradientUnits="userSpaceOnUse" x1="52.7048" y1="62.4462" x2="52.7048" y2="85.1878">
				<stop  offset="0" style="stop-color:#D9D9D9"/>
				<stop  offset="1" style="stop-color:#868686"/>
			</linearGradient>
			<path class="st5" d="M42.9,73.6V62.4H29.5v16.7c0,1.7,0.6,3.1,1.8,4.3c1.2,1.2,2.6,1.7,4.2,1.7h40.4v-9.5H45
				C43.8,75.7,42.9,74.7,42.9,73.6z"/>
			
				<linearGradient id="SVGID_00000147203010138181703900000000146567473409850513_" gradientUnits="userSpaceOnUse" x1="113.0955" y1="62.4462" x2="113.0955" y2="85.1878">
				<stop  offset="0" style="stop-color:#D9D9D9"/>
				<stop  offset="1" style="stop-color:#868686"/>
			</linearGradient>
			<path style="fill:url(#SVGID_00000147203010138181703900000000146567473409850513_);" d="M120.4,62.4h-14.9
				c0.1,0.6,0,1.2-0.4,1.8l-16,21h11.4c1.2,0,2.1-0.4,2.9-1.4l7.7-10.5c0.4-0.6,1-0.9,1.7-0.9c0,0,0,0,0,0c0.7,0,1.3,0.4,1.7,0.9
				l6.9,10.2c0.8,1.2,1.8,1.7,3.3,1.7H137l-16.1-21.7C120.6,63.2,120.5,62.8,120.4,62.4z"/>
			
				<linearGradient id="SVGID_00000111911940596459191990000012631530015511462292_" gradientUnits="userSpaceOnUse" x1="175.4359" y1="62.4462" x2="175.4359" y2="102.6137">
				<stop  offset="0" style="stop-color:#D9D9D9"/>
				<stop  offset="1" style="stop-color:#868686"/>
			</linearGradient>
			<path style="fill:url(#SVGID_00000111911940596459191990000012631530015511462292_);" d="M187.6,62.4c0,0.2,0,0.3,0,0.5
				c0,4.1-1.2,7.5-3.4,9.9c-2.3,2.5-5.3,3.8-8.9,3.8c-3.6,0-6.6-1.3-9-3.8c0,0,0,0,0,0c-2.3-2.5-3.4-5.8-3.4-9.9c0-0.2,0-0.3,0-0.5
				h-12.6v40.2h10.2c0.7,0,1.3-0.2,1.8-0.7c0.5-0.5,0.8-1.1,0.8-1.8V83c0-0.9,0.5-1.7,1.3-2c0.8-0.3,1.7-0.1,2.3,0.5
				c3,3,6.9,4.5,12.1,4.5c6.3,0,11.4-2.1,15.6-6.3c4.2-4.2,6.3-9.8,6.3-16.8c0-0.1,0-0.3,0-0.4H187.6z"/>
			
				<linearGradient id="SVGID_00000025439029904851697380000017313459135099312056_" gradientUnits="userSpaceOnUse" x1="236.2559" y1="62.4462" x2="236.2559" y2="85.9911">
				<stop  offset="0" style="stop-color:#D9D9D9"/>
				<stop  offset="1" style="stop-color:#868686"/>
			</linearGradient>
			<path style="fill:url(#SVGID_00000025439029904851697380000017313459135099312056_);" d="M211.9,62.4c0,0.1,0,0.2,0,0.3
				c0,6.8,2.4,12.3,7.2,16.6c4.8,4.4,11.3,6.6,19.3,6.6c6.9,0,12.4-1.6,16.5-4.7c0.4-0.3,0.6-0.7,0.7-1.2c0-0.5-0.1-0.8-0.4-1.2
				l-5.1-5.3c-3.3,2.3-7,3.5-11,3.5c-6.4,0-10.8-2.4-13.1-7.1c-0.3-0.7-0.7-1.4-0.9-2.2c-0.2-0.7-0.1-1.4,0.3-1.9
				c0.4-0.6,1-0.9,1.7-0.9h33.5c0.1-1.2,0.1-1.9,0.1-2.1c0-0.2,0-0.3,0-0.5H211.9z"/>
			
				<linearGradient id="SVGID_00000121962806256910449770000003571529052522308770_" gradientUnits="userSpaceOnUse" x1="275.8409" y1="62.4462" x2="275.8409" y2="85.1878">
				<stop  offset="0" style="stop-color:#D9D9D9"/>
				<stop  offset="1" style="stop-color:#868686"/>
			</linearGradient>
			<path style="fill:url(#SVGID_00000121962806256910449770000003571529052522308770_);" d="M269.3,85.2h10.7c0.6,0,1.1-0.2,1.5-0.6
				c0.4-0.4,0.6-0.9,0.6-1.6V64.9c0-0.9,0.1-1.6,0.2-2.4h-13V85.2z"/>
			
				<linearGradient id="SVGID_00000017506829554634202490000007089722179331753867_" gradientUnits="userSpaceOnUse" x1="329.6221" y1="62.4462" x2="329.6221" y2="85.9911">
				<stop  offset="0" style="stop-color:#D9D9D9"/>
				<stop  offset="1" style="stop-color:#868686"/>
			</linearGradient>
			<path style="fill:url(#SVGID_00000017506829554634202490000007089722179331753867_);" d="M341,78.4c-0.2-0.6-0.5-1-1-1.3
				c-0.5-0.3-1.2-0.4-2-0.3c-0.5,0.1-1.1,0.1-1.8,0.1c-2.1,0-3.9-0.7-5.2-2.1c-1.4-1.4-2.1-3.3-2.1-5.7v-6.8h-12.8v7
				c0,5.6,1.5,9.7,4.5,12.4c3,2.7,7.5,4.1,13.2,4.1c3.8,0,6.9-0.6,9.3-1.7L341,78.4C341,78.4,341,78.4,341,78.4z"/>
			
				<linearGradient id="SVGID_00000148654312904707302290000015616493120468526735_" gradientUnits="userSpaceOnUse" x1="376.5866" y1="62.4462" x2="376.5866" y2="85.9911">
				<stop  offset="0" style="stop-color:#D9D9D9"/>
				<stop  offset="1" style="stop-color:#868686"/>
			</linearGradient>
			<path style="fill:url(#SVGID_00000148654312904707302290000015616493120468526735_);" d="M352.3,62.4c0,0.1,0,0.2,0,0.3
				c0,6.8,2.4,12.3,7.2,16.6c4.8,4.4,11.3,6.6,19.3,6.6c6.9,0,12.4-1.6,16.5-4.7c0.4-0.3,0.6-0.7,0.7-1.2c0-0.5-0.1-0.8-0.4-1.2
				l-5.1-5.3c-3.3,2.3-7,3.5-11,3.5c-6.4,0-10.8-2.4-13.1-7.1c-0.3-0.7-0.7-1.4-0.9-2.2c-0.2-0.7-0.1-1.4,0.3-1.9
				c0.4-0.6,1-0.9,1.7-0.9h33.5c0.1-1.2,0.1-1.9,0.1-2.1c0-0.2,0-0.3,0-0.5H352.3z"/>
			
				<linearGradient id="SVGID_00000095326254196613350870000004108389878981417627_" gradientUnits="userSpaceOnUse" x1="434.8899" y1="62.4462" x2="434.8899" y2="85.9911">
				<stop  offset="0" style="stop-color:#D9D9D9"/>
				<stop  offset="1" style="stop-color:#868686"/>
			</linearGradient>
			<path style="fill:url(#SVGID_00000095326254196613350870000004108389878981417627_);" d="M456.5,74.8l-7.9-4
				c-2.6,3.9-6.2,5.9-10.6,5.9c-3.7,0-6.8-1.3-9.2-3.8c-2.4-2.5-3.6-5.9-3.6-10.1c0-0.1,0-0.2,0-0.3h-13.1c0,0.1,0,0.2,0,0.3
				c0,6.8,2.3,12.3,7.2,16.6c4.8,4.4,11.1,6.6,18.8,6.6c4.3,0,8.2-0.8,11.5-2.4c3.3-1.5,5.8-3.7,7.7-6.5c0.3-0.4,0.3-0.7,0.2-1.2
				C457.3,75.4,457,75,456.5,74.8z"/>
			
				<linearGradient id="SVGID_00000084529164603978883280000000582753587999786935_" gradientUnits="userSpaceOnUse" x1="476.5424" y1="62.4462" x2="476.5424" y2="85.1878">
				<stop  offset="0" style="stop-color:#D9D9D9"/>
				<stop  offset="1" style="stop-color:#868686"/>
			</linearGradient>
			<path style="fill:url(#SVGID_00000084529164603978883280000000582753587999786935_);" d="M470.1,83.4c0,0.5,0.2,0.9,0.5,1.2
				c0.5,0.5,0.8,0.5,1.1,0.5h11.2V63.7c0-0.4,0.1-0.8,0.1-1.3h-12.9V83.4z"/>
			
				<linearGradient id="SVGID_00000122685723591518825390000008507173444910558622_" gradientUnits="userSpaceOnUse" x1="511.4128" y1="62.4462" x2="511.4128" y2="85.1878">
				<stop  offset="0" style="stop-color:#D9D9D9"/>
				<stop  offset="1" style="stop-color:#868686"/>
			</linearGradient>
			<path style="fill:url(#SVGID_00000122685723591518825390000008507173444910558622_);" d="M505,83c0,0.7,0.2,1.1,0.6,1.6
				c0.4,0.4,0.9,0.6,1.6,0.6h10.7V62.4H505V83z"/>
			
				<linearGradient id="SVGID_00000175310992203806237430000006706273830762178703_" gradientUnits="userSpaceOnUse" x1="550.0618" y1="62.4462" x2="550.0618" y2="85.9911">
				<stop  offset="0" style="stop-color:#D9D9D9"/>
				<stop  offset="1" style="stop-color:#868686"/>
			</linearGradient>
			<path style="fill:url(#SVGID_00000175310992203806237430000006706273830762178703_);" d="M568.7,65.6c-1-1.4-2.1-2.4-3.4-3.2
				h-31.6c0.3,0.2,0.6,0.5,1,0.7c1.6,0.9,3.3,1.6,5.1,2.1c1.9,0.5,3.9,0.9,5.8,1.2c2.1,0.3,4,0.5,5.7,0.7c2,0.3,3.5,0.7,4.8,1.3
				c2.4,1.2,2.8,3,2.8,4c0,3.6-3.3,5.5-9.8,5.5c-4.5,0-9-0.9-13.4-2.6c-0.7-0.3-1.4-0.2-2.2,0.1c-0.8,0.4-1.4,0.9-1.8,1.8l-2.1,4.8
				c2,1,4.5,1.8,7.3,2.5c3.8,0.9,7.7,1.4,11.6,1.4c7.2,0,12.7-1.4,16.5-4.1c3.6-2.6,5.4-5.8,5.4-9.8
				C570.5,69.5,569.9,67.3,568.7,65.6z"/>
		</g>
		<g>
			
				<linearGradient id="SVGID_00000072264386208415168240000007005284529654013879_" gradientUnits="userSpaceOnUse" x1="189.5222" y1="156.1945" x2="189.5222" y2="182.9913">
				<stop  offset="0" style="stop-color:#D9D9D9"/>
				<stop  offset="1" style="stop-color:#868686"/>
			</linearGradient>
			<path style="fill:url(#SVGID_00000072264386208415168240000007005284529654013879_);" d="M209.9,156.2c-1,2.6-2.6,5-4.5,7.1
				c-4.2,4.3-9.5,6.5-15.9,6.5c-6.3,0-11.7-2.2-15.9-6.5c-2-2.1-3.5-4.4-4.6-7.1h-17.5c0.8,3.2,2.1,6.2,3.8,9c3.3,5.5,8,9.9,14,13.1
				c6,3.2,12.8,4.8,20.2,4.8c11.3,0,20.8-3.5,28.2-10.4c5-4.7,8.3-10.1,9.9-16.4H209.9z"/>
			
				<linearGradient id="SVGID_00000167396565726938936490000011027590252059909306_" gradientUnits="userSpaceOnUse" x1="249.1353" y1="156.1945" x2="249.1353" y2="181.5037">
				<stop  offset="0" style="stop-color:#D9D9D9"/>
				<stop  offset="1" style="stop-color:#868686"/>
			</linearGradient>
			<path style="fill:url(#SVGID_00000167396565726938936490000011027590252059909306_);" d="M241.2,156.2v25.3h13
				c0.9,0,1.5-0.3,2-0.8c0.6-0.6,0.8-1.3,0.8-2.2v-21.4c0-0.3,0-0.6,0-0.9H241.2z"/>
			
				<linearGradient id="SVGID_00000123422571370073760720000015475814128413920655_" gradientUnits="userSpaceOnUse" x1="298.177" y1="156.1945" x2="298.177" y2="181.5037">
				<stop  offset="0" style="stop-color:#D9D9D9"/>
				<stop  offset="1" style="stop-color:#868686"/>
			</linearGradient>
			<path style="fill:url(#SVGID_00000123422571370073760720000015475814128413920655_);" d="M290.2,156.2v20c0,1.5,0.5,2.7,1.5,3.8
				c1,1,2.3,1.5,3.8,1.5h10.7v-25.3H290.2z"/>
			
				<linearGradient id="SVGID_00000083780493871368809840000004167334758588764814_" gradientUnits="userSpaceOnUse" x1="350.0111" y1="156.1945" x2="350.0111" y2="182.452">
				<stop  offset="0" style="stop-color:#D9D9D9"/>
				<stop  offset="1" style="stop-color:#868686"/>
			</linearGradient>
			<path style="fill:url(#SVGID_00000083780493871368809840000004167334758588764814_);" d="M379.1,156.2H321
				c0.3,7.5,3.1,13.5,8.6,18.4c5.8,5.2,13.6,7.8,23.1,7.8c8.2,0,14.8-1.9,19.7-5.6c0.6-0.5,0.9-0.9,0.9-1.6c0-0.7-0.1-1.2-0.6-1.7
				l-6.3-6.5c-3.9,2.8-8.3,4.3-13.1,4.3c-7.3,0-12.4-2.8-15.2-8.2c-0.4-0.8-0.8-1.7-1.1-2.6l-0.9-2.8H379
				C379,157.1,379,156.6,379.1,156.2z"/>
			<g>
				
					<linearGradient id="SVGID_00000057861342937388229150000004495740682437378710_" gradientUnits="userSpaceOnUse" x1="399.6093" y1="156.1945" x2="399.6093" y2="181.5037">
					<stop  offset="0" style="stop-color:#D9D9D9"/>
					<stop  offset="1" style="stop-color:#868686"/>
				</linearGradient>
				<path style="fill:url(#SVGID_00000057861342937388229150000004495740682437378710_);" d="M405.9,179.8c1.1-1.2,1.7-2.5,1.7-4.1
					v-19.5h-15.9v25.3h10C403.4,181.5,404.7,180.9,405.9,179.8z"/>
				
					<linearGradient id="SVGID_00000140700723793402896740000004551837901610295717_" gradientUnits="userSpaceOnUse" x1="440.8195" y1="156.1945" x2="440.8195" y2="181.5037">
					<stop  offset="0" style="stop-color:#D9D9D9"/>
					<stop  offset="1" style="stop-color:#868686"/>
				</linearGradient>
				
					<rect x="432.8" y="156.2" style="fill:url(#SVGID_00000140700723793402896740000004551837901610295717_);" width="16" height="25.3"/>
			</g>
			
				<linearGradient id="SVGID_00000163041750351522309290000008250319961547733130_" gradientUnits="userSpaceOnUse" x1="485.9797" y1="156.1945" x2="485.9797" y2="182.452">
				<stop  offset="0" style="stop-color:#D9D9D9"/>
				<stop  offset="1" style="stop-color:#868686"/>
			</linearGradient>
			<path style="fill:url(#SVGID_00000163041750351522309290000008250319961547733130_);" d="M469.6,156.2v6.3
				c0,6.6,1.8,11.7,5.4,14.9c3.6,3.3,9,5,15.9,5c4.7,0,8.5-0.7,11.5-2.2l-2.6-7.3c-0.3-0.8-0.7-1.3-1.4-1.7
				c-0.7-0.4-1.6-0.5-2.5-0.4c-0.6,0.1-1.3,0.1-2,0.1c-2.4,0-4.4-0.8-5.9-2.3c-1.5-1.5-2.3-3.7-2.3-6.4v-6.1H469.6z"/>
			
				<linearGradient id="SVGID_00000098198795694614300720000006281896663045223076_" gradientUnits="userSpaceOnUse" x1="541.3715" y1="156.1945" x2="541.3715" y2="182.452">
				<stop  offset="0" style="stop-color:#D9D9D9"/>
				<stop  offset="1" style="stop-color:#868686"/>
			</linearGradient>
			<path style="fill:url(#SVGID_00000098198795694614300720000006281896663045223076_);" d="M570.4,156.2h-58.1
				c0.3,7.5,3.1,13.5,8.6,18.4c5.8,5.2,13.6,7.8,23.1,7.8c8.2,0,14.8-1.9,19.7-5.6c0.6-0.5,0.9-0.9,0.9-1.6c0-0.7-0.1-1.2-0.6-1.7
				l-6.3-6.5c-3.9,2.8-8.3,4.3-13.1,4.3c-7.3,0-12.4-2.8-15.2-8.2c-0.4-0.8-0.8-1.7-1.1-2.6l-0.9-2.8h42.9
				C570.4,157.1,570.4,156.6,570.4,156.2z"/>
		</g>
	</g>
</g>
</svg>
